# xmcd
#
# Track frame offsets:
#	150
#	10346
#	23081
#	33173
#	45388
#	63425
#	75056
#	84430
#	94574
#	105033
#	117292
#	130455
#	141832
#	154958
#	165532
#
# Disc length: 2396 seconds
#
# Revision: 1
# Processed by: cddbd v1.5.2PL0 Copyright (c) Steve Scherf et al.
# Submitted via: EasyCDDAExtractor 12.0.5.1
#
DISCID=a4095a0f
DTITLE=Various Artist - Golden Age of Country: Sing Me Back Home - Disc 2
DYEAR=2009
DGENRE=Country
TTITLE0=George Jones - Your Heart Turned Left (And I Was On The Right)
TTITLE1=Merle Haggard and the Strangers - The Bottle Let Me Down
TTITLE2=Willie Nelson - Touch Me
TTITLE3=Glen Campbell - By The Time I Get to Phoenix
TTITLE4=Bobby Goldsboro - Honey
TTITLE5=Wanda Jackson - In The Middle Of A Heartache
TTITLE6=Sonny James - Behind The Tear
TTITLE7=Hank Thompson and His Brazos Valley Boys - Rub-A-Dub-Dub
TTITLE8=Faron Young - Live Fast, Love Hard, Die Young
TTITLE9=Jimmy Heap and the Melody Masters with Perk Williams - Release Me
TTITLE10=Tex Williams and His Western Caravan - Smoke! Smoke! Smoke! (That Cig
TTITLE10=arette)
TTITLE11=The Louvin Brothers - When I Stop Dreaming
TTITLE12=Tennessee Ernie Ford - The Battle Of Davy Crockett
TTITLE13=Slim Whitman - Rose-Marie
TTITLE14=Ferlin Husky - Country Music Is Here To Stay
EXTD=
EXTT0=
EXTT1=
EXTT2=
EXTT3=
EXTT4=
EXTT5=
EXTT6=
EXTT7=
EXTT8=
EXTT9=
EXTT10=
EXTT11=
EXTT12=
EXTT13=
EXTT14=
PLAYORDER=
